# xmcd
#
# Track frame offsets:
#	187
#	18087
#	36115
#	51485
#	68070
#	82937
#	98077
#	114252
#	129432
#	143495
#
# Disc length: 2135 seconds
#
# Revision: 4
# Processed by: cddbd v1.5PL3 Copyright (c) Steve Scherf et al.
# Submitted via: audiograbber 1.82.02
#
DISCID=7408550a
DTITLE=Brand New Heavies - Heavy Rhyme Experience, Volume 1
DYEAR=1992
DGENRE=Hip-Hop
TTITLE0=Bonafied Funk (Featuring Main Source)
TTITLE1=It's Gettin Hectic (Featuring Gang Starr)
TTITLE2=Who Makes The Loot (Featuring Grand Puba)
TTITLE3=Wake Me When I'm Dead (Featuring Masta Ace)
TTITLE4=Jump N' Move (Featuring Jamalski)
TTITLE5=Death Threat (Featuring Kool G. Rap)
TTITLE6=State Of Yo (Featuring Black Sheep)
TTITLE7=Do What I Gotta Do (Featuring Ed O.G.)
TTITLE8=Whatgabouthat (Featuring Tiger)
TTITLE9=Soul Flower (Featuring The Pharcyde)
EXTD=Except there never was a volume 2...\nAnd anyway why are there no\ncategor
EXTD=ies for funk or hiphop?
EXTT0=
EXTT1=
EXTT2=
EXTT3=
EXTT4=
EXTT5=
EXTT6=
EXTT7=
EXTT8=
EXTT9=
PLAYORDER=
